<?xml version="1.0" encoding="UTF-8" standalone="no"?>
<!DOCTYPE svg PUBLIC "-//W3C//DTD SVG 1.1//EN" "http://www.w3.org/Graphics/SVG/1.1/DTD/svg11.dtd">
<!-- Created with Vectornator (http://vectornator.io/) -->
<svg height="100%" stroke-miterlimit="10" style="fill-rule:nonzero;clip-rule:evenodd;stroke-linecap:round;stroke-linejoin:round;" version="1.1" viewBox="0 0 1004.02 1004.02" width="100%" xml:space="preserve" xmlns="http://www.w3.org/2000/svg" xmlns:vectornator="http://vectornator.io" xmlns:xlink="http://www.w3.org/1999/xlink">
<defs/>
<clipPath id="ArtboardFrame">
<rect height="1004.02" width="1004.02" x="0" y="0"/>
</clipPath>
<g clip-path="url(#ArtboardFrame)" id="Layer-1" vectornator:layerName="Layer 1" visibility="hidden">
<g opacity="1">
<path d="M30.2236 502.009C30.2236 241.449 241.449 30.2236 502.009 30.2236C762.569 30.2236 973.794 241.449 973.794 502.009C973.794 762.569 762.569 973.794 502.009 973.794C241.449 973.794 30.2236 762.569 30.2236 502.009Z" fill="none" opacity="0.996154" stroke="#000000" stroke-linecap="round" stroke-linejoin="bevel" stroke-width="33.2719"/>
<path d="M390.262 502.009C390.262 563.725 440.293 613.756 502.009 613.756C563.725 613.756 613.756 563.725 613.756 502.009C613.756 440.293 563.725 390.262 502.009 390.262C440.293 390.262 390.262 440.293 390.262 502.009Z" fill="#000000" fill-rule="nonzero" opacity="0.996154" stroke="#000000" stroke-linecap="round" stroke-linejoin="bevel" stroke-width="33.2719"/>
<path d="M502.009 110.328L502.009 248.497" fill="#000000" fill-rule="nonzero" opacity="0.996154" stroke="#000000" stroke-linecap="round" stroke-linejoin="bevel" stroke-width="33.2719"/>
</g>
<g opacity="0">
<path d="M1410.8 767.121C1410.8 591.686 1553.02 449.469 1728.45 449.469C1903.88 449.469 2046.1 591.686 2046.1 767.121C2046.1 942.555 1903.88 1084.77 1728.45 1084.77C1553.02 1084.77 1410.8 942.555 1410.8 767.121Z" fill="none" opacity="0.996154" stroke="#000000" stroke-linecap="round" stroke-linejoin="bevel" stroke-width="33.2719"/>
<path d="M1657.74 767.121C1657.74 806.172 1689.4 837.83 1728.45 837.83C1767.5 837.83 1799.16 806.172 1799.16 767.121C1799.16 728.069 1767.5 696.411 1728.45 696.411C1689.4 696.411 1657.74 728.069 1657.74 767.121Z" fill="#000000" fill-rule="nonzero" opacity="0.996154" stroke="#000000" stroke-linecap="round" stroke-linejoin="bevel" stroke-width="33.2719"/>
<path d="M1728.45 519.28L1728.45 606.708" fill="#000000" fill-rule="nonzero" opacity="0.996154" stroke="#000000" stroke-linecap="round" stroke-linejoin="bevel" stroke-width="33.2719"/>
</g>
</g>
<g id="Layer-2" vectornator:layerName="Layer 2" visibility="hidden">
<g opacity="0">
<g opacity="1">
<path d="M300.501 566.914C191.032 566.915 81.5637 530.962 81.5637 530.962L81.5637 484.901C81.5637 484.901 191.032 437.104 300.501 437.103C302.113 437.103 303.725 437.114 305.337 437.134" fill="#000000" fill-rule="nonzero" opacity="0.996154" stroke="#000000" stroke-linecap="round" stroke-linejoin="round" stroke-width="33.2719"/>
<path d="M305.337 566.914L307.045 437.103" fill="#000000" fill-rule="nonzero" opacity="0.996154" stroke="#000000" stroke-linecap="round" stroke-linejoin="round" stroke-width="33.2719"/>
</g>
<g opacity="1">
<path d="M700.847 566.914C810.315 566.915 919.784 530.962 919.784 530.962L919.784 484.901C919.784 484.901 810.315 437.104 700.847 437.103C699.235 437.103 697.622 437.114 696.011 437.134" fill="#000000" fill-rule="nonzero" opacity="0.996154" stroke="#000000" stroke-linecap="round" stroke-linejoin="round" stroke-width="33.2719"/>
<path d="M696.01 566.914L694.303 437.103" fill="#000000" fill-rule="nonzero" opacity="0.996154" stroke="#000000" stroke-linecap="round" stroke-linejoin="round" stroke-width="33.2719"/>
</g>
<path d="M404.527 270.282L599.491 270.282L599.491 733.736L404.527 733.736L404.527 270.282Z" fill="none" opacity="0.996154" stroke="#000000" stroke-linecap="round" stroke-linejoin="round" stroke-width="110.88"/>
</g>
</g>
<g id="Layer-3" vectornator:layerName="Layer 3">
<path d="M63.0062 502.009C63.0062 259.554 259.554 63.0062 502.009 63.0062C744.463 63.0062 941.012 259.554 941.012 502.009C941.012 744.463 744.463 941.012 502.009 941.012C259.554 941.012 63.0062 744.463 63.0062 502.009Z" fill="none" opacity="1" stroke="#000000" stroke-linecap="round" stroke-linejoin="round" stroke-width="68.3645"/>
<path d="M500.674 840.277L459.788 721.148L418.903 602.019L500.674 602.019L582.444 602.019L541.559 721.148L500.674 840.277Z" fill="#000000" fill-rule="nonzero" opacity="1" stroke="#000000" stroke-linecap="round" stroke-linejoin="round" stroke-width="20.3804"/>
</g>
<g id="Layer-4" vectornator:layerName="Layer 4" visibility="hidden">
<path d="M502.009 86.7279L502.009 86.7279C586.493 86.7279 654.982 155.216 654.982 239.701L654.982 764.317C654.982 848.802 586.493 917.29 502.009 917.29L502.009 917.29C417.524 917.29 349.036 848.802 349.036 764.317L349.036 239.701C349.036 155.216 417.524 86.7279 502.009 86.7279Z" fill="none" opacity="1" stroke="#000000" stroke-linecap="round" stroke-linejoin="round" stroke-width="145"/>
</g>
<g clip-path="url(#ArtboardFrame)" id="Layer-5" vectornator:layerName="Layer 5" visibility="hidden">
<path d="M855.637 507.501L505.18 301.503L154.722 95.5051L151.552 502.009L148.381 908.513L502.009 708.007L855.637 507.501Z" fill="none" opacity="1" stroke="#000000" stroke-linecap="round" stroke-linejoin="round" stroke-width="145"/>
<path d="M1469.14 1426.29L1532.27 1426.29L1532.27 1487.32L1469.14 1487.32L1469.14 1426.29Z" fill="none" opacity="0" stroke="#000000" stroke-linecap="round" stroke-linejoin="round" stroke-width="145"/>
</g>
<g id="Layer-7" vectornator:layerName="Layer 7"/>
<g clip-path="url(#ArtboardFrame)" id="Layer-6" vectornator:layerName="Layer 6" visibility="hidden">
<path d="M116.308 116.308L887.71 116.308L887.71 887.71L116.308 887.71L116.308 116.308Z" fill="none" opacity="1" stroke="#000000" stroke-linecap="round" stroke-linejoin="round" stroke-width="145"/>
<path d="M2368.39 398.685L2420.74 398.685L2420.74 406.384L2368.39 406.384L2368.39 398.685Z" fill="none" opacity="1" stroke="#000000" stroke-linecap="round" stroke-linejoin="round" stroke-width="145"/>
</g>
</svg>
