{
    "asset" : {
        "generator" : "Khronos glTF Blender I/O v3.4.49",
        "version" : "2.0"
    },
    "extensionsUsed" : [
        "KHR_materials_specular",
        "KHR_materials_ior"
    ],
    "scene" : 0,
    "scenes" : [
        {
            "name" : "Scene",
            "nodes" : [
                0,
                1
            ]
        }
    ],
    "nodes" : [
        {
            "mesh" : 0,
            "name" : "landscape_earth"
        },
        {
            "mesh" : 1,
            "name" : "landscape_water"
        }
    ],
    "materials" : [
        {
            "name" : "earth",
            "pbrMetallicRoughness" : {
                "metallicFactor" : 0,
                "roughnessFactor" : 0.586363673210144
            }
        },
        {
            "alphaMode" : "BLEND",
            "extensions" : {
                "KHR_materials_specular" : {
                    "specularColorFactor" : [
                        1.526082119280832,
                        1.9910255586364334,
                        5.195557076289822
                    ]
                },
                "KHR_materials_ior" : {
                    "ior" : 1.4500000476837158
                }
            },
            "name" : "water2",
            "pbrMetallicRoughness" : {
                "baseColorFactor" : [
                    0.08399592339992523,
                    0.1747177392244339,
                    0.8000000715255737,
                    0.8230088353157043
                ],
                "metallicFactor" : 0,
                "roughnessFactor" : 0.24336284399032593
            }
        }
    ],
    "meshes" : [
        {
            "name" : "Landscape",
            "primitives" : [
                {
                    "attributes" : {
                        "POSITION" : 0,
                        "NORMAL" : 1
                    },
                    "indices" : 2,
                    "material" : 0
                }
            ]
        },
        {
            "name" : "Landscape_plane",
            "primitives" : [
                {
                    "attributes" : {
                        "POSITION" : 3,
                        "NORMAL" : 4
                    },
                    "indices" : 5,
                    "material" : 1
                }
            ]
        }
    ],
    "accessors" : [
        {
            "bufferView" : 0,
            "componentType" : 5126,
            "count" : 574,
            "max" : [
                1.5699999332427979,
                1,
                0.3127213716506958
            ],
            "min" : [
                -1.5699999332427979,
                -1,
                -0.14823812246322632
            ],
            "type" : "VEC3"
        },
        {
            "bufferView" : 1,
            "componentType" : 5126,
            "count" : 574,
            "type" : "VEC3"
        },
        {
            "bufferView" : 2,
            "componentType" : 5123,
            "count" : 2949,
            "type" : "SCALAR"
        },
        {
            "bufferView" : 3,
            "componentType" : 5126,
            "count" : 4,
            "max" : [
                1.5699999332427979,
                1,
                -0.029999956488609314
            ],
            "min" : [
                -1.5699999332427979,
                -1,
                -0.03000004217028618
            ],
            "type" : "VEC3"
        },
        {
            "bufferView" : 4,
            "componentType" : 5126,
            "count" : 4,
            "type" : "VEC3"
        },
        {
            "bufferView" : 5,
            "componentType" : 5123,
            "count" : 6,
            "type" : "SCALAR"
        }
    ],
    "bufferViews" : [
        {
            "buffer" : 0,
            "byteLength" : 6888,
            "byteOffset" : 0,
            "target" : 34962
        },
        {
            "buffer" : 0,
            "byteLength" : 6888,
            "byteOffset" : 6888,
            "target" : 34962
        },
        {
            "buffer" : 0,
            "byteLength" : 5898,
            "byteOffset" : 13776,
            "target" : 34963
        },
        {
            "buffer" : 0,
            "byteLength" : 48,
            "byteOffset" : 19676,
            "target" : 34962
        },
        {
            "buffer" : 0,
            "byteLength" : 48,
            "byteOffset" : 19724,
            "target" : 34962
        },
        {
            "buffer" : 0,
            "byteLength" : 12,
            "byteOffset" : 19772,
            "target" : 34963
        }
    ],
    "buffers" : [
        {
            "byteLength" : 19784,
            "uri" : "data:application/octet-stream;base64,"
        }
    ]
}
