{
    "asset" : {
        "generator" : "Khronos glTF Blender I/O v3.4.49",
        "version" : "2.0"
    },
    "extensionsUsed" : [
        "KHR_materials_emissive_strength",
        "KHR_materials_specular",
        "KHR_materials_ior"
    ],
    "scene" : 0,
    "scenes" : [
        {
            "name" : "Scene",
            "nodes" : [
                0,
                1,
                2
            ]
        }
    ],
    "nodes" : [
        {
            "mesh" : 0,
            "name" : "inner"
        },
        {
            "mesh" : 1,
            "name" : "outer"
        },
        {
            "mesh" : 2,
            "name" : "ObjGrid"
        }
    ],
    "materials" : [
        {
            "doubleSided" : true,
            "emissiveFactor" : [
                0.06238706037402153,
                0,
                1
            ],
            "extensions" : {
                "KHR_materials_emissive_strength" : {
                    "emissiveStrength" : 4.800000190734863
                }
            },
            "name" : "purple",
            "pbrMetallicRoughness" : {
                "baseColorFactor" : [
                    0.6506015658378601,
                    0.02599618211388588,
                    1,
                    1
                ],
                "metallicFactor" : 0,
                "roughnessFactor" : 0.5
            }
        },
        {
            "doubleSided" : true,
            "extensions" : {
                "KHR_materials_specular" : {
                    "specularColorFactor" : [
                        2.1510102042247476,
                        2.1510102042247476,
                        2.1510102042247476
                    ]
                },
                "KHR_materials_ior" : {
                    "ior" : 1.4500000476837158
                }
            },
            "name" : "white",
            "pbrMetallicRoughness" : {
                "baseColorFactor" : [
                    0.800000011920929,
                    0.800000011920929,
                    0.800000011920929,
                    1
                ],
                "metallicFactor" : 0,
                "roughnessFactor" : 0.16814158856868744
            }
        },
        {
            "doubleSided" : true,
            "extensions" : {
                "KHR_materials_specular" : {
                    "specularColorFactor" : [
                        2.371357614441398,
                        2.371357614441398,
                        2.371357614441398
                    ]
                },
                "KHR_materials_ior" : {
                    "ior" : 1.4500000476837158
                }
            },
            "name" : "the_object",
            "pbrMetallicRoughness" : {
                "baseColorFactor" : [
                    0.02280248887836933,
                    0.02280248887836933,
                    0.02280248887836933,
                    1
                ],
                "metallicFactor" : 0,
                "roughnessFactor" : 0.8141592741012573
            }
        }
    ],
    "meshes" : [
        {
            "name" : "Cylinder.001",
            "primitives" : [
                {
                    "attributes" : {
                        "POSITION" : 0,
                        "TEXCOORD_0" : 1,
                        "NORMAL" : 2
                    },
                    "indices" : 3,
                    "material" : 0
                }
            ]
        },
        {
            "name" : "Cylinder",
            "primitives" : [
                {
                    "attributes" : {
                        "POSITION" : 4,
                        "TEXCOORD_0" : 5,
                        "NORMAL" : 6
                    },
                    "indices" : 7,
                    "material" : 1
                }
            ]
        },
        {
            "name" : "Plane.001",
            "primitives" : [
                {
                    "attributes" : {
                        "POSITION" : 8,
                        "NORMAL" : 9
                    },
                    "indices" : 10,
                    "material" : 2
                }
            ]
        }
    ],
    "accessors" : [
        {
            "bufferView" : 0,
            "componentType" : 5126,
            "count" : 636,
            "max" : [
                10.617560386657715,
                10.589385032653809,
                0.30261921882629395
            ],
            "min" : [
                -10.617560386657715,
                -10.645735740661621,
                -0.30261921882629395
            ],
            "type" : "VEC3"
        },
        {
            "bufferView" : 1,
            "componentType" : 5126,
            "count" : 636,
            "type" : "VEC2"
        },
        {
            "bufferView" : 2,
            "componentType" : 5126,
            "count" : 636,
            "type" : "VEC3"
        },
        {
            "bufferView" : 3,
            "componentType" : 5123,
            "count" : 960,
            "type" : "SCALAR"
        },
        {
            "bufferView" : 4,
            "componentType" : 5126,
            "count" : 876,
            "max" : [
                10.952868461608887,
                10.92469310760498,
                0.6854034662246704
            ],
            "min" : [
                -10.952868461608887,
                -10.981043815612793,
                -0.6854034662246704
            ],
            "type" : "VEC3"
        },
        {
            "bufferView" : 5,
            "componentType" : 5126,
            "count" : 876,
            "type" : "VEC2"
        },
        {
            "bufferView" : 6,
            "componentType" : 5126,
            "count" : 876,
            "type" : "VEC3"
        },
        {
            "bufferView" : 7,
            "componentType" : 5123,
            "count" : 4992,
            "type" : "SCALAR"
        },
        {
            "bufferView" : 8,
            "componentType" : 5126,
            "count" : 1656,
            "max" : [
                1.4741148948669434,
                -8.325949668884277,
                1.4733842611312866
            ],
            "min" : [
                -1.4762530326843262,
                -10.00694465637207,
                -1.4893513917922974
            ],
            "type" : "VEC3"
        },
        {
            "bufferView" : 9,
            "componentType" : 5126,
            "count" : 1656,
            "type" : "VEC3"
        },
        {
            "bufferView" : 10,
            "componentType" : 5123,
            "count" : 2664,
            "type" : "SCALAR"
        }
    ],
    "bufferViews" : [
        {
            "buffer" : 0,
            "byteLength" : 7632,
            "byteOffset" : 0,
            "target" : 34962
        },
        {
            "buffer" : 0,
            "byteLength" : 5088,
            "byteOffset" : 7632,
            "target" : 34962
        },
        {
            "buffer" : 0,
            "byteLength" : 7632,
            "byteOffset" : 12720,
            "target" : 34962
        },
        {
            "buffer" : 0,
            "byteLength" : 1920,
            "byteOffset" : 20352,
            "target" : 34963
        },
        {
            "buffer" : 0,
            "byteLength" : 10512,
            "byteOffset" : 22272,
            "target" : 34962
        },
        {
            "buffer" : 0,
            "byteLength" : 7008,
            "byteOffset" : 32784,
            "target" : 34962
        },
        {
            "buffer" : 0,
            "byteLength" : 10512,
            "byteOffset" : 39792,
            "target" : 34962
        },
        {
            "buffer" : 0,
            "byteLength" : 9984,
            "byteOffset" : 50304,
            "target" : 34963
        },
        {
            "buffer" : 0,
            "byteLength" : 19872,
            "byteOffset" : 60288,
            "target" : 34962
        },
        {
            "buffer" : 0,
            "byteLength" : 19872,
            "byteOffset" : 80160,
            "target" : 34962
        },
        {
            "buffer" : 0,
            "byteLength" : 5328,
            "byteOffset" : 100032,
            "target" : 34963
        }
    ],
    "buffers" : [
        {
            "byteLength" : 105360,
            "uri" : "data:application/octet-stream;base64,"
        }
    ]
}
