{
    "asset" : {
        "generator" : "Khronos glTF Blender I/O v3.4.49",
        "version" : "2.0"
    },
    "scene" : 0,
    "scenes" : [
        {
            "name" : "Scene",
            "nodes" : [
                0
            ]
        }
    ],
    "nodes" : [
        {
            "mesh" : 0,
            "name" : "Icosphere"
        }
    ],
    "materials" : [
        {
            "doubleSided" : true,
            "name" : "Material.003",
            "pbrMetallicRoughness" : {
                "baseColorFactor" : [
                    0.7228180766105652,
                    0.8000000715255737,
                    0.19756555557250977,
                    1
                ],
                "metallicFactor" : 0,
                "roughnessFactor" : 0.5
            }
        },
        {
            "doubleSided" : true,
            "name" : "Material.002",
            "pbrMetallicRoughness" : {
                "baseColorFactor" : [
                    0.8000000715255737,
                    0.079167939722538,
                    0.4905572831630707,
                    1
                ],
                "metallicFactor" : 0,
                "roughnessFactor" : 0.5
            }
        },
        {
            "doubleSided" : true,
            "name" : "Material.001",
            "pbrMetallicRoughness" : {
                "baseColorFactor" : [
                    0.03781063109636307,
                    0.036585692316293716,
                    0.8000000715255737,
                    1
                ],
                "metallicFactor" : 0,
                "roughnessFactor" : 0.5
            }
        }
    ],
    "meshes" : [
        {
            "name" : "Icosphere",
            "primitives" : [
                {
                    "attributes" : {
                        "POSITION" : 0,
                        "NORMAL" : 1
                    },
                    "indices" : 2,
                    "material" : 0
                },
                {
                    "attributes" : {
                        "POSITION" : 3,
                        "NORMAL" : 4
                    },
                    "indices" : 5,
                    "material" : 1
                },
                {
                    "attributes" : {
                        "POSITION" : 6,
                        "NORMAL" : 7
                    },
                    "indices" : 8,
                    "material" : 2
                }
            ]
        }
    ],
    "accessors" : [
        {
            "bufferView" : 0,
            "componentType" : 5126,
            "count" : 46303,
            "max" : [
                7.174307823181152,
                6.9430832862854,
                7.026496887207031
            ],
            "min" : [
                -6.156018257141113,
                -7.206497669219971,
                -6.419717311859131
            ],
            "type" : "VEC3"
        },
        {
            "bufferView" : 1,
            "componentType" : 5126,
            "count" : 46303,
            "type" : "VEC3"
        },
        {
            "bufferView" : 2,
            "componentType" : 5123,
            "count" : 233925,
            "type" : "SCALAR"
        },
        {
            "bufferView" : 3,
            "componentType" : 5126,
            "count" : 1568,
            "max" : [
                7.055603981018066,
                6.8126654624938965,
                6.070786476135254
            ],
            "min" : [
                -6.03765869140625,
                -6.125382423400879,
                -7.026496887207031
            ],
            "type" : "VEC3"
        },
        {
            "bufferView" : 4,
            "componentType" : 5126,
            "count" : 1568,
            "type" : "VEC3"
        },
        {
            "bufferView" : 5,
            "componentType" : 5123,
            "count" : 7728,
            "type" : "SCALAR"
        },
        {
            "bufferView" : 6,
            "componentType" : 5126,
            "count" : 29383,
            "max" : [
                7.948301315307617,
                7.658497333526611,
                6.452678680419922
            ],
            "min" : [
                -6.687967777252197,
                -6.152257919311523,
                -6.50575065612793
            ],
            "type" : "VEC3"
        },
        {
            "bufferView" : 7,
            "componentType" : 5126,
            "count" : 29383,
            "type" : "VEC3"
        },
        {
            "bufferView" : 8,
            "componentType" : 5123,
            "count" : 148578,
            "type" : "SCALAR"
        }
    ],
    "bufferViews" : [
        {
            "buffer" : 0,
            "byteLength" : 555636,
            "byteOffset" : 0,
            "target" : 34962
        },
        {
            "buffer" : 0,
            "byteLength" : 555636,
            "byteOffset" : 555636,
            "target" : 34962
        },
        {
            "buffer" : 0,
            "byteLength" : 467850,
            "byteOffset" : 1111272,
            "target" : 34963
        },
        {
            "buffer" : 0,
            "byteLength" : 18816,
            "byteOffset" : 1579124,
            "target" : 34962
        },
        {
            "buffer" : 0,
            "byteLength" : 18816,
            "byteOffset" : 1597940,
            "target" : 34962
        },
        {
            "buffer" : 0,
            "byteLength" : 15456,
            "byteOffset" : 1616756,
            "target" : 34963
        },
        {
            "buffer" : 0,
            "byteLength" : 352596,
            "byteOffset" : 1632212,
            "target" : 34962
        },
        {
            "buffer" : 0,
            "byteLength" : 352596,
            "byteOffset" : 1984808,
            "target" : 34962
        },
        {
            "buffer" : 0,
            "byteLength" : 297156,
            "byteOffset" : 2337404,
            "target" : 34963
        }
    ],
    "buffers" : [
        {
            "byteLength" : 2634560,
            "uri" : "data:application/octet-stream;base64,"
        }
    ]
}
